<?xml version="1.0" encoding="utf-8"?>
<!-- Generator: Adobe Illustrator 26.0.1, SVG Export Plug-In . SVG Version: 6.00 Build 0)  -->
<svg version="1.1" id="Слой_1" xmlns="http://www.w3.org/2000/svg" xmlns:xlink="http://www.w3.org/1999/xlink" x="0px" y="0px"
	 viewBox="0 0 120 120" style="enable-background:new 0 0 120 120;" xml:space="preserve">
<style type="text/css">
	.st0{fill:#5D87A9;}
	.st1{fill:#FFFFFF;}
	.st2{fill:#243C62;}
	.st3{fill:#9ABEE0;}
	.st4{fill:#9BBEDD;}
</style>
<g>
	<g>
		<path id="path4818_00000136401479193376014740000017148133708049486515_" class="st0" d="M45.9,50.8c-2.6-0.7-4.6-2.1-9.8-6.7
			c-5.8-5.1-8.4-6.6-12.1-6.6c-2,0-3.3,0.3-5.3,1.4c-1.2,0.6-3.5,2.2-4.9,3.5l-0.9,0.8l0.1-1.2c0.2-3.6,1.2-8,2.5-11.5
			C20.3,17.1,32.1,6.6,46.7,2.7c19.6-5.2,40.4,1.9,51.7,17.7c4.8,6.7,7.5,14.3,7.9,22.3l0.1,2.2l-2.3,1.8c-2.8,2.2-4.2,3.1-5.7,3.8
			c-1.5,0.7-3.2,0.8-4.9,0.4c-2.4-0.6-4.4-1.9-9.5-6.4c-2.1-1.8-4.4-3.7-5.2-4.3c-4.6-3.2-8.7-3.5-13.1-1c-1.8,1-4.6,3.2-6.3,5
			c-2.4,2.4-6,5.1-8.3,6.2C49.5,51,47.5,51.3,45.9,50.8L45.9,50.8z"/>
		<path class="st1" d="M95.3,52.2c-0.7,0-1.4-0.1-2.1-0.2c-2.7-0.6-4.7-2-10-6.6c-2-1.8-4.3-3.7-5.1-4.2c-4.2-3-7.9-3.2-11.9-0.9
			c-1.7,1-4.4,3.1-6.1,4.8c-2.5,2.5-6.3,5.3-8.6,6.4c-1.8,0.9-4.1,1.1-6,0.6h0c-2.8-0.7-4.9-2.2-10.3-7c-5.5-4.9-8-6.3-11.3-6.3
			c-1.8,0-3,0.3-4.8,1.2c-1.2,0.6-3.3,2.1-4.7,3.4l-0.9,0.8c-0.3,0.3-0.9,0.4-1.3,0.2s-0.7-0.6-0.6-1.1l0.1-1.2
			c0.2-3.7,1.2-8.2,2.6-11.8c2.5-6.7,6.8-12.9,12.4-17.9S39,3.6,46.4,1.6C56.2-1,66.4-0.7,76,2.6c9.6,3.3,17.7,9.2,23.3,17.1
			c4.9,6.9,7.7,14.8,8.1,22.9l0.1,2.2c0,0.4-0.1,0.7-0.4,1l-2.3,1.8c-2.9,2.2-4.4,3.2-6,3.9C97.8,52,96.5,52.2,95.3,52.2z
			 M71.4,36.3c2.6,0,5.3,1,8,2.9c0.8,0.6,3.2,2.6,5.3,4.4c5,4.4,6.8,5.6,9,6.1c1.4,0.3,2.8,0.2,4.1-0.4c1.4-0.6,2.8-1.5,5.5-3.6
			l1.8-1.4l-0.1-1.6c-0.4-7.7-3-15.2-7.7-21.7C86.4,5.6,66.1-1.3,47,3.8c-14.3,3.8-25.7,13.9-30.5,27c-1.1,2.9-1.9,6.5-2.3,9.7
			c1.4-1.1,3-2.2,4-2.7c2.1-1.1,3.6-1.5,5.8-1.5c4,0,6.9,1.5,12.9,6.9c5.1,4.5,7,5.9,9.4,6.5h0c1.3,0.3,3.1,0.2,4.4-0.5
			c2.1-1,5.6-3.6,7.9-5.9c1.8-1.8,4.7-4.1,6.6-5.2C67.2,37,69.3,36.3,71.4,36.3z"/>
	</g>
	<path id="path4818_00000013194460799617723400000011708380426774850982_" class="st2" d="M59.6,1c15.3,0,30,7,38.8,19.4
		c4.8,6.7,7.5,14.3,7.9,22.3l0.1,2.2l-2.3,1.8c-2.8,2.2-4.2,3.1-5.7,3.8c-1,0.4-2,0.6-3.1,0.6c-0.6,0-1.2-0.1-1.8-0.2
		c-2.4-0.6-4.4-1.9-9.5-6.4c-2.1-1.8-4.4-3.7-5.2-4.3c-2.5-1.8-5-2.7-7.4-2.7c-1.9,0-3.8,0.6-5.7,1.7c-1.8,1-4.6,3.2-6.3,5
		c-2.4,2.4-6,5.1-8.3,6.2c-1,0.5-2.3,0.7-3.5,0.7c-0.6,0-1.2-0.1-1.7-0.2c-2.6-0.7-4.6-2.1-9.8-6.7c-5.8-5.1-8.4-6.6-12.1-6.6
		c-2,0-3.3,0.3-5.3,1.4c-1.2,0.6-3.5,2.2-4.9,3.5l-0.9,0.8l0.1-1.2c0.2-3.6,1.2-8,2.5-11.5C20.3,17.1,32.1,6.6,46.7,2.7
		C51,1.6,55.3,1,59.6,1 M59.6-0.4c-4.5,0-9,0.6-13.3,1.8C38.9,3.3,32.1,7,26.5,12c-5.6,5-9.9,11.2-12.4,18
		c-1.3,3.6-2.3,8.2-2.6,11.9l-0.1,1.2l-0.2,3.5l2.6-2.3l0.9-0.8c1.4-1.2,3.5-2.7,4.7-3.3c1.8-0.9,2.9-1.2,4.6-1.2
		c3.3,0,5.7,1.3,11.1,6.2c5.4,4.9,7.6,6.3,10.4,7.1c0.6,0.2,1.4,0.3,2.1,0.3c1.4,0,2.9-0.3,4.1-0.9c2.4-1.1,6.1-3.9,8.7-6.4
		c1.7-1.7,4.3-3.8,6-4.8c1.7-1,3.4-1.5,5-1.5c2.1,0,4.2,0.8,6.5,2.4c0.7,0.5,2.9,2.3,5.1,4.2c5.4,4.7,7.4,6.1,10.1,6.7
		c0.7,0.2,1.4,0.3,2.1,0.3c1.3,0,2.5-0.3,3.7-0.8c1.6-0.7,3.1-1.7,6-3.9l2.3-1.8l0.6-0.5l0-0.7l-0.1-2.2c-0.2-4.1-1-8.2-2.4-12
		c-1.4-3.9-3.3-7.6-5.8-11C90.6,7,75.7-0.4,59.6-0.4L59.6-0.4z"/>
	<g>
		<path id="path4830_00000169517070718146757550000016206047405006628762_" class="st3" d="M28.3,87.9c-2.8-1.2-4.4-3.6-4.2-6.6
			c0.2-2.4,1.4-4.3,3.5-5.4l1.2-0.6l30.5,0c30.3,0,30.5,0,31.5,0.3c2,0.7,3.5,2.4,4.1,4.5c0.8,3.1-0.7,6.3-3.6,7.8l-1,0.5l-30.5,0
			l-30.5,0.1L28.3,87.9z"/>
		<path class="st1" d="M29.3,89.5c-0.2,0-0.3,0-0.4-0.1l-1-0.4c-3.3-1.4-5.1-4.3-4.9-7.8c0.2-2.8,1.6-5.1,4.1-6.4l1.2-0.6
			c0.2-0.1,0.4-0.1,0.6-0.1l30.5,0c30.7,0,30.7,0,31.9,0.4c2.3,0.9,4.1,2.9,4.8,5.3c1,3.6-0.8,7.4-4.2,9.1l-1,0.5
			c-0.2,0.1-0.3,0.1-0.5,0.1L29.3,89.5L29.3,89.5z M29.1,76.3l-0.9,0.5c-1.7,0.9-2.8,2.5-2.9,4.5c-0.2,2.5,1.1,4.5,3.4,5.5l0,0
			l0.8,0.3L90,87.1l0.8-0.4c2.4-1.2,3.6-3.9,3-6.4c-0.5-1.7-1.7-3.1-3.4-3.7c-0.8-0.3-3.1-0.3-31.1-0.3L29.1,76.3z"/>
	</g>
	<g>
		<path id="path4832_00000135691437487547209530000006418034924575880593_" class="st0" d="M35.9,103c-1.3-0.4-2.7-1.5-3.5-2.7
			c-2.3-3.5-1-8.1,2.9-9.9l1.1-0.5h23.3h23.3l1,0.5c1.5,0.7,2.6,1.8,3.3,3.3c0.5,1.1,0.6,1.4,0.6,2.9c0,1.4-0.1,1.8-0.5,2.8
			c-0.6,1.3-2.1,2.8-3.4,3.4l-0.9,0.4l-23.2,0C40.6,103.2,36.6,103.2,35.9,103z"/>
		<path class="st1" d="M50.5,104.4c-12.6,0-14.3-0.1-14.9-0.3l0,0c-1.5-0.5-3.2-1.7-4.1-3.1c-1.3-1.9-1.7-4.3-1-6.4
			c0.6-2.2,2.2-4.1,4.4-5.1l1.1-0.5c0.2-0.1,0.3-0.1,0.5-0.1h46.6c0.2,0,0.3,0,0.5,0.1l1,0.5c1.7,0.8,3,2.1,3.9,3.8
			c0.6,1.3,0.7,1.7,0.7,3.4c0,1.5-0.1,2.1-0.6,3.3c-0.7,1.6-2.4,3.3-3.9,4l-0.9,0.4c-0.2,0.1-0.3,0.1-0.5,0.1l-23.2,0
			C56.2,104.4,53.1,104.4,50.5,104.4z M36.2,101.9c0.8,0.2,6.9,0.2,23.7,0.2l22.9,0l0.6-0.3c1.1-0.5,2.3-1.8,2.8-2.9
			c0.4-0.8,0.4-1,0.4-2.3c0-1.4,0-1.5-0.5-2.4c-0.6-1.2-1.6-2.1-2.8-2.7L82.6,91h-46l-0.8,0.4c-1.6,0.7-2.7,2.1-3.2,3.7
			c-0.4,1.6-0.2,3.2,0.7,4.5C34,100.6,35.2,101.5,36.2,101.9z M36.2,101.9C36.2,101.9,36.2,101.9,36.2,101.9L36.2,101.9
			C36.2,101.9,36.2,101.9,36.2,101.9z"/>
	</g>
	<g>
		<path id="path4834_00000027600946259187238900000012911170590736111244_" class="st4" d="M40.5,118.2c-1.3-0.2-2.5-0.8-3.5-1.8
			c-3.1-3-2.7-8,0.9-10.4c0.6-0.4,1.5-0.9,2.1-1c0.6-0.1,6.8-0.2,19.8-0.2c18,0,18.9,0,20,0.3c4.9,1.5,6.3,7.9,2.5,11.4
			c-0.6,0.5-1.5,1.1-2.1,1.3l-1.1,0.4l-18.9,0C49.8,118.3,40.9,118.2,40.5,118.2L40.5,118.2z"/>
		<path class="st1" d="M57.3,119.4c-5.1,0-15.3,0-16.9-0.1c-0.1,0-0.1,0-0.2,0c-1.5-0.3-2.9-1-4.1-2.1c-1.7-1.6-2.6-3.9-2.4-6.3
			c0.2-2.4,1.5-4.6,3.5-5.9c0.8-0.5,1.8-1,2.5-1.1c0.5-0.1,2.5-0.2,20-0.2c18.5,0,19.1,0,20.3,0.4c2.7,0.8,4.7,3,5.3,5.8
			c0.6,2.8-0.3,5.6-2.4,7.6c-0.7,0.6-1.7,1.3-2.4,1.6l-1.1,0.4c-0.1,0.1-0.3,0.1-0.4,0.1l-18.9,0C60.1,119.4,59,119.4,57.3,119.4z
			 M40.6,117c0.8,0.1,8.7,0.1,19.5,0.1l18.6,0l0.9-0.3c0.5-0.2,1.3-0.7,1.7-1.1c1.5-1.4,2.1-3.4,1.7-5.4c-0.4-2-1.8-3.5-3.7-4.1
			c-0.9-0.3-2.2-0.3-19.6-0.3c-12.2,0-18.8,0.1-19.5,0.2c-0.3,0.1-1.1,0.4-1.7,0.8c-1.4,1-2.4,2.5-2.5,4.2c-0.1,1.7,0.5,3.3,1.7,4.4
			C38.6,116.3,39.5,116.8,40.6,117z M40.6,117C40.6,117,40.6,117,40.6,117C40.6,117,40.6,117,40.6,117L40.6,117z"/>
	</g>
	<path class="st2" d="M88.4,89.7H30.7c-4.4,0-8-3.6-8-8c0-4.4,3.6-8,8-8h57.7c4.4,0,8,3.6,8,8S92.9,89.7,88.4,89.7z M30.7,75.1
		c-3.6,0-6.6,3-6.6,6.6s3,6.6,6.6,6.6h57.7c3.6,0,6.6-3,6.6-6.6c0-3.6-3-6.6-6.6-6.6H30.7z"/>
	<path class="st2" d="M81.2,104.6H38c-4.4,0-8.1-3.6-8.1-8.1c0-4.4,3.6-8.1,8.1-8.1h43.3c4.4,0,8.1,3.6,8.1,8.1
		C89.3,101,85.7,104.6,81.2,104.6z M38,89.9c-3.7,0-6.6,3-6.6,6.6c0,3.7,3,6.6,6.6,6.6h43.3c3.7,0,6.6-3,6.6-6.6
		c0-3.7-3-6.6-6.6-6.6H38z"/>
	<path class="st2" d="M77.6,119.6h-36c-4.5,0-8.1-3.6-8.1-8.1s3.6-8.1,8.1-8.1h36.1c4.5,0,8.1,3.6,8.1,8.1
		C85.7,115.9,82.1,119.6,77.6,119.6z M41.6,104.8c-3.7,0-6.7,3-6.7,6.7s3,6.7,6.7,6.7h36.1c3.7,0,6.7-3,6.7-6.7s-3-6.7-6.7-6.7H41.6
		z"/>
	<path class="st2" d="M12.2,57.1H6.8v-2.8h13.8v2.8h-5.4v14h-3V57.1z"/>
	<path class="st2" d="M32.2,67.4l1.9,2c-1.1,1.2-3.3,2-5.1,2c-3.6,0-6.6-2.8-6.6-6.6c0-3.8,2.8-6.6,6.4-6.6c3.9,0,6.2,3,6.2,7.6
		h-9.5c0.4,1.7,1.7,3,3.5,3C30.1,68.7,31.5,68.2,32.2,67.4z M25.5,63.5h6.6c-0.3-1.6-1.4-2.7-3.2-2.7C27.3,60.8,25.9,61.8,25.5,63.5
		z"/>
	<path class="st2" d="M36.9,64.7c0-3.6,3.1-6.6,6.8-6.6c1.9,0,3.6,0.8,4.8,2.1l-2,1.8c-0.7-0.8-1.7-1.3-2.8-1.3
		c-2.1,0-3.8,1.9-3.8,4c0,2.2,1.7,4.1,3.8,4.1c1.1,0,2.2-0.5,2.9-1.3l2,1.7c-1.2,1.3-2.9,2.1-4.9,2.1C40,71.3,36.9,68.3,36.9,64.7z"
		/>
	<path class="st2" d="M62.5,63v8h-2.9v-7.4c0-1.7-1.1-2.9-2.7-2.9c-1.7,0-3.1,1.2-3.1,2.7V71h-3V54h3v6.2c0.8-1.2,2.2-2,3.9-2
		C60.5,58.1,62.5,60.2,62.5,63z"/>
	<path class="st0" d="M65.8,63.9v-9.6h3v9.5c0,2.8,1.8,4.8,4.3,4.8c2.6,0,4.4-2,4.4-4.8v-9.5h3v9.6c0,4.4-3,7.4-7.4,7.4
		C68.9,71.3,65.8,68.3,65.8,63.9z"/>
	<path class="st0" d="M95.6,63v8h-2.9v-7.4c0-1.7-1.1-2.9-2.7-2.9s-2.9,1-3,2.4v8h-3V58.4h3v1.7c0.8-1.2,2.2-2,3.9-2
		C93.7,58.1,95.6,60.2,95.6,63z"/>
	<path class="st0" d="M98.6,54.8c0-0.9,0.8-1.7,1.7-1.7c0.9,0,1.7,0.8,1.7,1.7s-0.8,1.7-1.7,1.7C99.4,56.5,98.6,55.7,98.6,54.8z
		 M98.8,58.4h3V71h-3V58.4z"/>
	<path class="st0" d="M112.2,70.3c-0.7,0.6-1.7,1-2.7,1c-2.1,0-3.6-1.5-3.6-3.6v-6.8h-1.8v-2.5h1.8V55h2.9v3.5h2.9v2.5h-2.9v6.4
		c0,0.9,0.5,1.5,1.2,1.5c0.5,0,1-0.2,1.2-0.5L112.2,70.3z"/>
</g>
</svg>
