<?xml version="1.0" encoding="utf-8"?>
<!-- Generator: Adobe Illustrator 26.0.1, SVG Export Plug-In . SVG Version: 6.00 Build 0)  -->
<svg version="1.1" id="Слой_1" xmlns="http://www.w3.org/2000/svg" xmlns:xlink="http://www.w3.org/1999/xlink" x="0px" y="0px"
	 viewBox="0 0 500 489" style="enable-background:new 0 0 500 489;" xml:space="preserve">
<g>
	<path d="M3.6,0.2l271.5,77.1c0.9,0.3,1.1,1.5,0.2,2l-73.9,42.2c-0.3,0.2-0.7,0.2-1.1,0l-163-93.6c-3.2-1.8-6.4,2.5-3.6,5
		l128.3,115.9c0.5,0.5,0.5,1.3-0.1,1.7l-97.3,61.7c-0.6,0.4-1.4,0.1-1.6-0.6L0.4,3.5C-0.2,1.5,1.6-0.4,3.6,0.2z"/>
	<path d="M171.6,144.7L94.2,76.2c-0.9-0.8,0.1-2.2,1.1-1.6l94.1,55.8c0.3,0.2,0.5,0.5,0.5,0.8v53.6c0,1.1-1.5,1.4-1.9,0.4
		l-16.3-40.2C171.8,145,171.7,144.8,171.6,144.7z"/>
	<path d="M167.5,161.4l6.4,18.2c0.5,1.5-1.1,2.8-2.4,2l-19.1-10.9c-1.1-0.6-1.1-2.3,0-2.9l12.7-7.3C166,160,167.2,160.4,167.5,161.4
		z"/>
	<circle cx="222.9" cy="192.9" r="7.3"/>
	<circle cx="253.3" cy="219.7" r="7.3"/>
	<circle cx="249.6" cy="262.3" r="7.3"/>
	<circle cx="219.2" cy="286.6" r="7.3"/>
	<circle cx="174.2" cy="290.3" r="7.3"/>
	<circle cx="131.6" cy="293.9" r="7.3"/>
	<circle cx="97.5" cy="320.7" r="7.3"/>
	<circle cx="90.2" cy="365.7" r="7.3"/>
	<circle cx="112.1" cy="399.8" r="7.3"/>
	<circle cx="151.1" cy="421.7" r="7.3"/>
	<circle cx="196.1" cy="426.6" r="7.3"/>
	<circle cx="246" cy="426.6" r="7.3"/>
	<circle cx="295.9" cy="421.7" r="7.3"/>
	<circle cx="351.8" cy="414.4" r="7.3"/>
	<circle cx="396.8" cy="407.1" r="7.3"/>
	<circle cx="440.6" cy="419.3" r="7.3"/>
	<circle cx="493" cy="481.3" r="7.3"/>
	<circle cx="469.8" cy="447.2" r="7.3"/>
</g>
</svg>
