<?xml version="1.0" encoding="utf-8"?>
<!-- Generator: Adobe Illustrator 26.0.1, SVG Export Plug-In . SVG Version: 6.00 Build 0)  -->
<svg version="1.1"
	 id="svg2" inkscape:export-filename="C:\Users\carla\Desktop\TechUnit_logo_transparent background.png" inkscape:version="0.92.1 r15371" xmlns:cc="http://creativecommons.org/ns#" xmlns:dc="http://purl.org/dc/elements/1.1/" xmlns:inkscape="http://www.inkscape.org/namespaces/inkscape" xmlns:rdf="http://www.w3.org/1999/02/22-rdf-syntax-ns#" xmlns:sodipodi="http://sodipodi.sourceforge.net/DTD/sodipodi-0.dtd" xmlns:svg="http://www.w3.org/2000/svg"
	 xmlns="http://www.w3.org/2000/svg" xmlns:xlink="http://www.w3.org/1999/xlink" x="0px" y="0px" viewBox="0 0 1000 1000"
	 style="enable-background:new 0 0 1000 1000;" xml:space="preserve">
<style type="text/css">
	.st0{fill:#5D87A9;}
	.st1{fill:#FFFFFF;}
	.st2{fill:#243C62;}
	.st3{fill:#9ABEE0;}
	.st4{fill:#9BBEDD;}
</style>
<sodipodi:namedview  bordercolor="#666666" borderopacity="1" gridtolerance="10" guidetolerance="10" id="namedview4" inkscape:current-layer="svg2" inkscape:cx="1163.5454" inkscape:cy="-832.19654" inkscape:guide-bbox="true" inkscape:measure-end="0,0" inkscape:measure-start="0,0" inkscape:pageopacity="0" inkscape:pageshadow="2" inkscape:window-height="986" inkscape:window-maximized="1" inkscape:window-width="1920" inkscape:window-x="-11" inkscape:window-y="-11" inkscape:zoom="0.11313709" objecttolerance="10" pagecolor="#ffffff" showgrid="false" showguides="true" units="px">
	<inkscape:grid  id="grid4615" type="xygrid"></inkscape:grid>
</sodipodi:namedview>
<defs>
	<inkscape:path-effect  effect="spiro" id="path-effect5815" is_visible="true"></inkscape:path-effect>
	<inkscape:path-effect  effect="spiro" id="path-effect5809" is_visible="true"></inkscape:path-effect>
	<inkscape:path-effect  effect="spiro" id="path-effect5805" is_visible="true"></inkscape:path-effect>
	<inkscape:path-effect  effect="spiro" id="path-effect4895" is_visible="true"></inkscape:path-effect>
	<inkscape:path-effect  effect="spiro" id="path-effect4891" is_visible="true"></inkscape:path-effect>
	<inkscape:path-effect  effect="spiro" id="path-effect4887" is_visible="true"></inkscape:path-effect>
	<inkscape:path-effect  effect="spiro" id="path-effect5589" is_visible="true"></inkscape:path-effect>
	<inkscape:path-effect  effect="spiro" id="path-effect5577" is_visible="true"></inkscape:path-effect>
	<inkscape:path-effect  effect="spiro" id="path-effect5569" is_visible="true"></inkscape:path-effect>
	<inkscape:path-effect  effect="spiro" id="path-effect5565" is_visible="true"></inkscape:path-effect>
	<inkscape:path-effect  effect="spiro" id="path-effect5538" is_visible="true"></inkscape:path-effect>
	<inkscape:path-effect  effect="spiro" id="path-effect5526" is_visible="true"></inkscape:path-effect>
	<inkscape:path-effect  effect="spiro" id="path-effect5522" is_visible="true"></inkscape:path-effect>
	<inkscape:path-effect  effect="spiro" id="path-effect4623" is_visible="true"></inkscape:path-effect>
	<inkscape:path-effect  effect="spiro" id="path-effect4619" is_visible="true"></inkscape:path-effect>
	<inkscape:path-effect  effect="spiro" id="path-effect4605" is_visible="true"></inkscape:path-effect>
	<inkscape:path-effect  effect="spiro" id="path-effect4601" is_visible="true"></inkscape:path-effect>
	<inkscape:path-effect  effect="spiro" id="path-effect4597" is_visible="true"></inkscape:path-effect>
	<inkscape:path-effect  effect="spiro" id="path-effect4593" is_visible="true"></inkscape:path-effect>
	<inkscape:path-effect  effect="spiro" id="path-effect4589" is_visible="true"></inkscape:path-effect>
	<inkscape:path-effect  effect="spiro" id="path-effect4585" is_visible="true"></inkscape:path-effect>
	<inkscape:path-effect  effect="spiro" id="path-effect4577" is_visible="true"></inkscape:path-effect>
	<inkscape:path-effect  effect="spiro" id="path-effect4573" is_visible="true"></inkscape:path-effect>
	<inkscape:path-effect  effect="spiro" id="path-effect4570" is_visible="true"></inkscape:path-effect>
	<inkscape:path-effect  effect="spiro" id="path-effect4558" is_visible="true"></inkscape:path-effect>
	<inkscape:path-effect  effect="spiro" id="path-effect4554" is_visible="true"></inkscape:path-effect>
	<inkscape:path-effect  effect="spiro" id="path-effect4550" is_visible="true"></inkscape:path-effect>
	<inkscape:path-effect  effect="spiro" id="path-effect4536" is_visible="true"></inkscape:path-effect>
	<inkscape:path-effect  effect="spiro" id="path-effect4539" is_visible="true"></inkscape:path-effect>
	<inkscape:path-effect  effect="spiro" id="path-effect4535" is_visible="true"></inkscape:path-effect>
	<inkscape:path-effect  effect="spiro" id="path-effect4489" is_visible="true"></inkscape:path-effect>
	<inkscape:path-effect  effect="spiro" id="path-effect825" is_visible="true"></inkscape:path-effect>
	<inkscape:path-effect  effect="spiro" id="path-effect829" is_visible="true"></inkscape:path-effect>
	<inkscape:path-effect  effect="spiro" id="path-effect833" is_visible="true"></inkscape:path-effect>
	<inkscape:path-effect  effect="spiro" id="path-effect5572" is_visible="true"></inkscape:path-effect>
	<inkscape:path-effect  effect="spiro" id="path-effect5574" is_visible="true"></inkscape:path-effect>
	<inkscape:path-effect  effect="spiro" id="path-effect5576" is_visible="true"></inkscape:path-effect>
</defs>
<g id="g4860" transform="translate(3045.0204,1009.5498)">
	<g id="flowRoot4850" transform="matrix(1.4656149,0,0,1.465615,27559.889,574.72645)">
	</g>
	<g id="flowRoot4858" transform="matrix(1.4656149,0,0,1.465615,28181.14,574.72645)">
	</g>
</g>
<g id="g5901" transform="translate(995.90721,-2764.8976)">
</g>
<g>
	<g>
		<path id="path4818_00000136401479193376014740000017148133708049486515_" inkscape:connector-curvature="0" class="st0" d="
			M385.1,427.1c-21.4-5.6-38.5-17.3-82-56.1c-48.2-42.9-70.1-54.9-100.9-54.9c-16.5,0-27.9,2.9-44.1,11.3
			c-10.4,5.4-28.8,18.5-41.2,29.4l-7.9,6.9l0.7-10.4c2-29.6,10-66.8,20.8-96C171.6,145.9,270.1,58.6,391.4,26.1
			c163.1-43.7,336.9,15.6,431.2,147.1c40.2,56,62.7,119.5,66,185.9l0.9,18l-19.4,15c-23.3,18-35.2,25.9-47.7,31.4
			c-12.5,5.6-27,6.8-40.5,3.6c-20.3-4.8-36.5-15.7-79.4-53.3c-17.1-15-36.6-31.1-43.4-35.9c-38.1-26.7-72.8-29.3-109.2-8.2
			c-15,8.7-38.2,26.9-52.8,41.5c-20.2,20.1-50.4,42.7-68.8,51.3C415.3,428.8,398.3,430.6,385.1,427.1L385.1,427.1z"/>
		<path class="st1" d="M796.9,438.6c-5.7,0-11.5-0.7-17.1-2c-22.1-5.3-39.3-16.7-83.6-55.4c-16.7-14.6-36.2-30.7-42.6-35.2
			c-35.1-24.6-65.6-27-98.8-7.7c-14.4,8.4-36.7,25.9-50.8,40c-20.9,20.8-52.2,44.2-71.5,53.2c-15.3,7.2-34.4,9.1-49.9,5.1
			c0,0-0.1,0-0.1,0c-23.2-6.1-40.9-18.1-85.9-58.2c-46.2-41.2-66.5-52.4-94.5-52.4c-14.9,0-24.9,2.6-39.7,10.2
			c-9.8,5.1-27.4,17.6-39.3,28.1l-7.9,6.9c-2.9,2.6-7.1,3.1-10.6,1.4c-3.5-1.7-5.6-5.4-5.3-9.3l0.7-10.4c2-30.6,10.2-68.4,21.4-98.6
			c20.7-56.2,56.4-107.8,103-149.1c46.6-41.3,103.4-71.8,164.4-88.1c81.9-21.9,167.3-19.1,247,8.1c79.8,27.2,147.1,76.6,194.5,142.7
			c41,57.2,64.4,123.2,67.8,191.1l0.9,18c0.2,3.1-1.2,6.2-3.7,8.1l-19.4,15c-23.9,18.5-36.5,26.8-49.6,32.6
			C817.1,436.5,807,438.6,796.9,438.6z M597.7,306.3c22,0,44.2,8,66.9,23.9c7,4.9,26.8,21.3,44.2,36.5
			c41.4,36.3,56.9,46.8,75.3,51.2c11.5,2.8,23.7,1.7,34.3-3.1c11.6-5.2,23.1-12.8,45.7-30.3l15.4-11.9l-0.6-13
			c-3.2-64.1-25.3-126.7-64.2-180.8C722.6,50.3,553.5-7.3,393.9,35.4c-119,31.8-214.1,116.1-254.3,225.3
			c-8.9,24.1-16,54.5-19.1,80.6c11.6-9.1,24.7-18.1,33.2-22.5c17.7-9.1,30.4-12.4,48.5-12.4c33.3,0,57.4,12.9,107.3,57.3
			c42.3,37.8,58.4,48.9,78.1,54c0,0,0.1,0,0.1,0c11,2.8,25.7,1.3,36.7-3.9c17.2-8.1,46.9-30.3,66.1-49.4c15.1-15,39.1-33.9,54.7-43
			C562.7,311.4,580.1,306.3,597.7,306.3z"/>
	</g>
	<path id="path4818_00000013194460799617723400000011708380426774850982_" class="st2" d="M499.3,11.9
		c127.6,0,249.7,58.6,323.4,161.3c40.2,56,62.7,119.5,66,185.9l0.9,18l-19.4,15c-23.3,18-35.2,25.9-47.7,31.4
		c-8,3.6-16.8,5.4-25.6,5.4c-5,0-10-0.6-14.9-1.7c-20.3-4.8-36.5-15.7-79.4-53.3c-17.1-15-36.6-31.1-43.4-35.9
		c-21.2-14.9-41.4-22.3-61.3-22.3c-15.9,0-31.7,4.7-47.9,14.1c-15,8.7-38.2,26.9-52.8,41.5c-20.2,20.1-50.4,42.7-68.8,51.3
		c-8.7,4.1-19,6.2-28.8,6.2c-5.1,0-10-0.6-14.5-1.8c-21.4-5.6-38.5-17.3-82-56.1c-48.2-42.9-70.1-54.9-100.9-54.9
		c-16.5,0-27.9,2.9-44.1,11.3c-10.4,5.4-28.8,18.5-41.2,29.4l-7.9,6.9l0.7-10.4c2-29.6,10-66.8,20.8-96
		C171.6,145.9,270.1,58.6,391.4,26.1C427.1,16.5,463.4,11.9,499.3,11.9 M499.3,0c-37.4,0-74.8,4.9-110.9,14.6
		C327,31,269.8,61.6,223,103.2c-47,41.6-82.8,93.5-103.7,150.1c-11.2,30.4-19.5,68.4-21.5,99.3l-0.7,10.4l-1.9,28.8l21.7-19l7.9-6.9
		c11.6-10.1,29.4-22.9,38.8-27.8c14.6-7.5,24-10,38.6-10c27.3,0,47.3,11.1,92.9,51.8c45.4,40.5,63.3,52.6,87,58.8
		c5.4,1.4,11.3,2.1,17.5,2.1c11.8,0,23.8-2.6,33.9-7.4c19.8-9.3,50.8-32.4,72.1-53.7c14-13.9,36.1-31.3,50.3-39.6
		c14.4-8.4,28.2-12.5,41.9-12.5c17.4,0,35.2,6.6,54.5,20.1c5.7,4,24,19,42.4,35.1c44.6,39.1,62,50.6,84.5,56
		c5.7,1.4,11.7,2.1,17.6,2.1c10.5,0,21.1-2.2,30.5-6.4c13.4-6,26-14.3,50.1-32.9l19.3-15l4.9-3.8l-0.3-6.2l-0.9-18
		c-1.7-34.2-8.3-68-19.8-100.3c-11.5-32.3-27.7-63.2-48.4-92C757.6,62.1,633.1,0,499.3,0L499.3,0z"/>
	<g>
		<path id="path4830_00000169517070718146757550000016206047405006628762_" inkscape:connector-curvature="0" class="st3" d="
			M238.3,736c-23.4-9.6-36.3-30.3-34.7-55.4c1.3-19.8,11.6-35.9,29.1-45.4l9.7-5.3l254.1-0.4c252.9-0.4,254.2-0.4,262.5,2.7
			c16.7,6.2,29.4,20.2,34.1,37.5c6.9,25.6-5.6,52.9-29.7,64.7l-8.7,4.3l-253.9,0.4L247,739.6L238.3,736z"/>
		<path class="st1" d="M247,749.2c-1.3,0-2.5-0.2-3.7-0.7l-8.7-3.6c-27.3-11.3-42.5-35.5-40.6-64.9c1.5-23.2,13.6-42.1,34.1-53.2
			l9.7-5.3c1.4-0.8,3-1.2,4.6-1.2l254.1-0.4c255.9-0.4,255.9-0.4,265.9,3.4c19.5,7.3,34.5,23.8,40,44c8.1,30.1-6.5,62-34.8,75.9
			l-8.7,4.3c-1.3,0.6-2.8,1-4.2,1L247,749.2C247,749.2,247,749.2,247,749.2z M244.8,639.6l-7.6,4.1c-14.5,7.8-23,21.2-24.1,37.6
			c-1.4,21.1,9.1,37.8,28.7,45.9c0,0,0,0,0,0l6.9,2.9l503.6-0.7l6.7-3.3c20-9.8,30.4-32.4,24.7-53.6c-3.9-14.3-14.4-25.9-28.1-31.1
			c-6.8-2.5-25.8-2.5-259.1-2.1L244.8,639.6z"/>
	</g>
	<g>
		<path id="path4832_00000135691437487547209530000006418034924575880593_" inkscape:connector-curvature="0" class="st0" d="
			M301.6,861.6c-10.6-3.3-22.5-12.4-29.1-22.3c-19.3-28.9-8.1-67.4,24-82.5l8.8-4.1h194h194l8.7,4.1c12.2,5.7,21.8,15.1,27.7,27.1
			c4.5,9.2,5,11.5,5,24c0,12-0.6,15.1-4.4,23.4c-5.2,11.2-17.2,23.3-28.1,28.4l-7.3,3.4l-193.3,0.3
			C340.9,863.6,307.2,863.3,301.6,861.6z"/>
		<path class="st1" d="M423.1,873.1c-105.4,0-118.8-0.6-124.4-2.3c0,0,0,0,0,0c-12.7-4-26.4-14.5-34.2-26.2
			c-10.6-15.9-13.8-35.5-8.7-53.7c5.2-18.7,18.6-34.3,36.7-42.8l8.8-4.1c1.3-0.6,2.7-0.9,4.1-0.9h388.1c1.4,0,2.8,0.3,4.1,0.9
			l8.7,4.1c14.2,6.7,25.4,17.6,32.3,31.6c5.2,10.5,6,14.2,6,28.2c0,12.7-0.6,17.3-5.3,27.4c-6.1,13.2-19.9,27.1-32.8,33.1l-7.3,3.4
			c-1.3,0.6-2.6,0.9-4,0.9L501.6,873C470.9,873.1,445,873.1,423.1,873.1z M304.3,852.3c6.5,1.4,57.5,1.6,197.2,1.4l191.1-0.3
			l5.4-2.5c8.9-4.2,19.2-14.6,23.5-23.8c3.1-6.7,3.5-8.3,3.5-19.3c0-11.3-0.3-12.2-4-19.7c-4.9-10-13-17.9-23.2-22.7l-6.8-3.2H307.4
			l-6.8,3.2c-13,6.1-22.6,17.2-26.3,30.5c-3.6,13-1.4,26.5,6.2,37.9C285.8,841.9,295.8,849.6,304.3,852.3z M304.4,852.4
			C304.4,852.4,304.5,852.4,304.4,852.4L304.4,852.4C304.5,852.4,304.4,852.4,304.4,852.4z"/>
	</g>
	<g>
		<path id="path4834_00000027600946259187238900000012911170590736111244_" inkscape:connector-curvature="0" class="st4" d="
			M339.6,988.1c-11.1-1.9-20.6-6.8-29.5-15.3c-26.1-24.7-22.3-66.7,7.8-86.9c5.4-3.6,12.9-7.1,17.3-8.1c5.4-1.2,57-1.7,164.8-1.7
			c150.1,0,157.4,0.1,166.4,2.9c41.2,12.8,52.7,65.8,20.7,95c-4.7,4.3-12.2,9.2-17.2,11.2l-8.8,3.6l-157.2,0.2
			C417.4,989.2,343.5,988.8,339.6,988.1L339.6,988.1z"/>
		<path class="st1" d="M480,998.7c-42.4,0-127.8-0.1-140.7-1c-0.5,0-0.9-0.1-1.4-0.1c-12.9-2.2-24.2-8-34.5-17.8
			c-14.5-13.7-21.8-32.9-20.2-52.6c1.7-20,12.3-38,29.2-49.3c6.5-4.4,15-8.3,20.7-9.5c4.3-0.9,21-1.9,166.8-1.9
			c154,0,158.8,0.1,169.3,3.4c22.6,7,39.1,25,44.3,48.2c5.2,23.4-2.2,47-19.9,63.1c-5.6,5.1-14,10.6-20.1,13l-8.8,3.6
			c-1.1,0.5-2.4,0.7-3.6,0.7l-157.2,0.2C503.5,998.7,494.2,998.7,480,998.7z M341,978.6c6.3,0.5,72.8,1,162.9,0.9l155.4-0.2l7.1-2.9
			c3.9-1.6,10.5-5.9,14.3-9.4c12.5-11.5,17.8-28.2,14.1-44.8c-3.6-16.3-15.3-29.1-31.2-34c-7.5-2.3-18.2-2.5-163.5-2.5
			c-101.6,0-156.4,0.5-162.9,1.5c-2.9,0.7-9.2,3.5-13.9,6.6c-12,8.1-19.6,20.8-20.8,34.9c-1.2,13.9,4,27.4,14.2,37
			C324.2,972.9,331.9,977,341,978.6z M341.1,978.6C341.2,978.6,341.2,978.6,341.1,978.6C341.2,978.6,341.1,978.6,341.1,978.6
			C341.1,978.6,341.1,978.6,341.1,978.6z"/>
	</g>
	<path class="st2" d="M739.5,751.2H258.7c-36.9,0-66.8-30-66.8-66.8c0-36.9,30-66.8,66.8-66.8h480.8c36.9,0,66.8,30,66.8,66.8
		C806.3,721.2,776.3,751.2,739.5,751.2z M258.7,629.4c-30.3,0-54.9,24.6-54.9,54.9c0,30.3,24.6,54.9,54.9,54.9h480.8
		c30.3,0,54.9-24.6,54.9-54.9c0-30.3-24.6-54.9-54.9-54.9H258.7z"/>
	<path class="st2" d="M679.4,875.3H318.8c-37,0-67.2-30.1-67.2-67.2c0-37,30.1-67.2,67.2-67.2h360.6c37,0,67.2,30.1,67.2,67.2
		C746.5,845.2,716.4,875.3,679.4,875.3z M318.8,752.9c-30.5,0-55.2,24.8-55.2,55.2c0,30.5,24.8,55.2,55.2,55.2h360.6
		c30.5,0,55.2-24.8,55.2-55.2c0-30.5-24.8-55.2-55.2-55.2H318.8z"/>
	<path class="st2" d="M649.3,1000H348.9c-37.2,0-67.5-30.3-67.5-67.5c0-37.2,30.3-67.5,67.5-67.5h300.5c37.2,0,67.5,30.3,67.5,67.5
		C716.8,969.7,686.5,1000,649.3,1000z M348.9,877c-30.6,0-55.5,24.9-55.5,55.5c0,30.6,24.9,55.5,55.5,55.5h300.5
		c30.6,0,55.5-24.9,55.5-55.5c0-30.6-24.9-55.5-55.5-55.5H348.9z"/>
	<path class="st2" d="M104,479H59.3v-23.2h114.7V479h-44.7v116.5H104V479z"/>
	<path class="st2" d="M271.1,565.4l15.7,16.3c-9.1,9.8-27.4,16.3-42.7,16.3c-30.1,0-54.9-23-54.9-55.3c0-31.5,23.6-54.7,53.5-54.7
		c32.5,0,51.4,24.6,51.4,63.4h-79.3c3,14.4,14,24.6,29.1,24.6C253.6,575.9,265.2,571.5,271.1,565.4z M215,532.4h55.3
		c-2.8-13.2-11.8-22.6-26.6-22.6C229.8,509.9,218.6,518.6,215,532.4z"/>
	<path class="st2" d="M310.1,542.8c0-29.9,25.8-54.9,56.5-54.9c15.9,0,29.9,6.7,39.8,17.1l-16.7,14.6c-5.7-6.3-14.4-10.6-23.4-10.6
		c-17.3,0-31.7,15.5-31.7,33.7c0,18.5,14.4,33.9,31.7,33.9c9.1,0,18.1-4.3,24-11l16.7,14.4c-10.2,10.8-24.2,17.7-40.9,17.7
		C335.9,597.9,310.1,572.7,310.1,542.8z"/>
	<path class="st2" d="M522.9,528.6v66.9h-24v-62c0-14.2-9.1-24.4-22.2-24.4c-14,0-25.6,10.2-25.6,22.8v63.6h-24.8V453.3h24.8v51.4
		c6.3-10.2,18.7-16.9,32.7-16.9C506.9,487.9,522.9,504.8,522.9,528.6z"/>
	<path class="st0" d="M551,535.9v-80.1h25.4v79.3c0,23.2,15,39.8,36.2,39.8c21.3,0,36.4-16.7,36.4-39.8v-79.3h25.2v80.1
		c0,36.4-25.4,62-61.6,62C576.6,597.9,551,572.3,551,535.9z"/>
	<path class="st0" d="M799,528.6v66.9h-24v-62c0-14.2-9.1-24.4-22.2-24.4s-23.8,8.7-25.4,19.9v66.5h-24.8V490.3h24.8v14
		c6.5-9.8,18.7-16.5,32.5-16.5C782.9,487.9,799,504.8,799,528.6z"/>
	<path class="st0" d="M824.2,460.3c0-7.5,6.3-14,14.2-14c7.7,0,14,6.5,14,14c0,7.5-6.3,14.2-14,14.2
		C830.5,474.5,824.2,467.8,824.2,460.3z M825.8,490.3h24.8v105.1h-24.8V490.3z"/>
	<path class="st0" d="M937.6,589.5c-5.9,5.1-14.4,8.3-22.4,8.3c-17.5,0-29.7-12.6-29.7-30.3v-56.7h-15.2v-20.5h15.2v-28.9h24.2v28.9
		h23.8v20.5h-23.8v53.7c0,7.1,4.5,12.2,10.4,12.2c4.3,0,8.1-1.6,10.4-3.9L937.6,589.5z"/>
</g>
</svg>
